<?xml version="1.0" encoding="UTF-8" standalone="no"?>
<!-- Created with Inkscape (http://www.inkscape.org/) -->

<svg
   xmlns:dc="http://purl.org/dc/elements/1.1/"
   xmlns:cc="http://creativecommons.org/ns#"
   xmlns:rdf="http://www.w3.org/1999/02/22-rdf-syntax-ns#"
   xmlns:svg="http://www.w3.org/2000/svg"
   xmlns="http://www.w3.org/2000/svg"
   xmlns:sodipodi="http://sodipodi.sourceforge.net/DTD/sodipodi-0.dtd"
   xmlns:inkscape="http://www.inkscape.org/namespaces/inkscape"
   width="64"
   height="64"
   id="svg2"
   version="1.1"
   inkscape:version="0.48.4 r9939"
   sodipodi:docname="test.svg">
  <defs
     id="defs4" />
  <sodipodi:namedview
     id="base"
     pagecolor="#ffffff"
     bordercolor="#666666"
     borderopacity="1.0"
     inkscape:pageopacity="0.0"
     inkscape:pageshadow="2"
     inkscape:zoom="3.7223918"
     inkscape:cx="50"
     inkscape:cy="49.999982"
     inkscape:document-units="px"
     inkscape:current-layer="layer1"
     showgrid="false"
     inkscape:window-width="1366"
     inkscape:window-height="712"
     inkscape:window-x="0"
     inkscape:window-y="27"
     inkscape:window-maximized="1" />
  <metadata
     id="metadata7">
    <rdf:RDF>
      <cc:Work
         rdf:about="">
        <dc:format>image/svg+xml</dc:format>
        <dc:type
           rdf:resource="http://purl.org/dc/dcmitype/StillImage" />
      </cc:Work>
    </rdf:RDF>
  </metadata>
  <g
     inkscape:label="Layer 1"
     inkscape:groupmode="layer"
     id="layer1"
     transform="translate(0,-988.36218)">
    <rect
       style="fill:#000000;fill-opacity:1;stroke:#000000;stroke-width:0.96444398;stroke-linecap:round;stroke-linejoin:round;stroke-miterlimit:4;stroke-opacity:1;stroke-dasharray:none"
       id="fundo"
       width="63.035557"
       height="63.035557"
       x="0.48222226"
       y="988.84442"
       ry="9.4014683"
       inkscape:label="#rect2985" />
    <path
       style="fill:#ffffff;fill-opacity:1;stroke:#000000;stroke-width:0.96444398;stroke-linejoin:round;stroke-miterlimit:4;stroke-opacity:1;stroke-dasharray:none"
       d="m 3.3879852,992.44323 0.7496893,-0.65869 c 0.9442811,-0.82966 2.4514924,-1.61716 3.7349243,-1.95145 1.5039913,-0.39175 46.6127962,-0.38328 48.2772452,0.009 1.383682,0.32616 2.516515,0.9337 3.673882,1.9703 l 0.893907,0.80065 -11.754166,16.55306 -33.673131,0.017 z"
       id="lingual_palatal"
       inkscape:connector-curvature="0"
       sodipodi:nodetypes="csssscccc"
       inkscape:label="#path3794" />
    <path
       style="fill:#ffffff;fill-opacity:1;stroke:#000000;stroke-width:0.96444398;stroke-linejoin:round;stroke-miterlimit:4;stroke-opacity:1;stroke-dasharray:none"
       d="m 55.331086,1039.1083 -5.9338,-8.2432 0.0014,-10.4505 0.0014,-10.4504 c 3.991108,-5.4347 7.722696,-11.0663 11.780553,-16.45108 0.228096,-0.22809 1.147661,1.67642 1.402463,2.90464 0.123592,0.59575 0.167338,8.48224 0.135784,24.47874 l -0.04655,23.5998 -0.389576,0.9544 c -0.214266,0.5249 -0.530906,1.1674 -0.703644,1.4276 l -0.314069,0.4733 -5.9338,-8.2433 z"
       id="mesial"
       inkscape:connector-curvature="0"
       sodipodi:nodetypes="cccccsscssccc"
       inkscape:label="#path3796" />
    <path
       style="fill:#ffffff;fill-opacity:1;stroke:#000000;stroke-width:0.96444398;stroke-linecap:round;stroke-linejoin:round;stroke-miterlimit:4;stroke-opacity:1;stroke-dasharray:none"
       d="m 7.860605,1050.9037 c -1.8422665,-0.4493 -4.4461603,-2.153 -4.214241,-2.7574 0.05651,-0.1472 2.6097277,-3.9375 5.6738177,-8.4228 l 5.5710723,-8.1551 16.980263,0 16.980265,0 5.763926,8.0258 c 3.170157,4.414 5.842204,8.1255 5.93788,8.2476 0.359861,0.4592 -1.678976,2.0919 -3.495901,2.7995 l -1.153102,0.449 -23.513039,0.031 c -19.878288,0.026 -23.6703907,-0.01 -24.530941,-0.2175 z"
       id="vestibular"
       inkscape:connector-curvature="0"
       inkscape:label="#path3798" />
    <path
       style="fill:#ffffff;fill-opacity:1;stroke:#000000;stroke-width:0.96444398;stroke-linejoin:round;stroke-miterlimit:4;stroke-opacity:1;stroke-dasharray:none"
       d="m 2.1305742,1046.2749 c -0.3304028,-0.6919 -0.6847314,-1.7214 -0.787397,-2.2877 -0.2602941,-1.4358 -0.2602941,-45.78682 0,-47.22262 0.1026656,-0.5663 0.4614756,-1.6051 0.7973556,-2.30843 0.5100654,-1.06808 0.6482476,-1.23963 0.8386201,-1.04117 l 11.5390131,16.15032 -9.65e-4,10.5244 -9.64e-4,10.5243 -5.7688707,8.4534 c -3.1728185,4.6494 -5.8244413,8.4562 -5.892435,8.4595 -0.067994,0.01 -0.3939544,-0.56 -0.7243571,-1.252 z"
       id="distal"
       inkscape:connector-curvature="0"
       sodipodi:nodetypes="csssccccsccc"
       inkscape:label="#path3800" />
    <rect
       ry="0"
       y="1008.6351"
       x="14.427341"
       height="23.454193"
       width="35.145317"
       id="oclusal"
       style="fill:#ffffff;fill-opacity:1;stroke:#000000;stroke-width:1.92888796;stroke-linecap:round;stroke-linejoin:round;stroke-miterlimit:4;stroke-opacity:1;stroke-dasharray:none"
       inkscape:label="#rect3776" />
    <rect
       inkscape:label="#rect2985"
       ry="9.4014683"
       y="988.84442"
       x="0.48222226"
       height="63.035557"
       width="63.035557"
       id="dente"
       style="fill:none;stroke:#000000;stroke-width:0.96444398;stroke-linecap:round;stroke-linejoin:round;stroke-miterlimit:4;stroke-opacity:1;stroke-dasharray:none" />
  </g>
</svg>
