<?xml version="1.0" encoding="UTF-8" standalone="no"?>
<!-- Created with Inkscape (http://www.inkscape.org/) -->

<svg
   xmlns:dc="http://purl.org/dc/elements/1.1/"
   xmlns:cc="http://creativecommons.org/ns#"
   xmlns:rdf="http://www.w3.org/1999/02/22-rdf-syntax-ns#"
   xmlns:svg="http://www.w3.org/2000/svg"
   xmlns="http://www.w3.org/2000/svg"
   xmlns:sodipodi="http://sodipodi.sourceforge.net/DTD/sodipodi-0.dtd"
   xmlns:inkscape="http://www.inkscape.org/namespaces/inkscape"
   width="250"
   height="250"
   id="svg2"
   version="1.1"
   inkscape:version="0.48.4 r9939"
   sodipodi:docname="logo.svg">
  <defs
     id="defs4">
    <clipPath
       id="clipPath3288"
       clipPathUnits="userSpaceOnUse">
      <path
         id="path3290"
         d="m 6639.64,6173.72 c 0,0 0,150.66 -61.55,237.65 -61.52,87.01 -154.9,101.85 -154.9,101.85 0,0 0.73,-0.04 2.1,-0.04 12.69,0 80.51,3.46 137.96,74.32 193.09,-48.81 76.39,-413.78 76.39,-413.78"
         inkscape:connector-curvature="0" />
    </clipPath>
    <clipPath
       id="clipPath3276"
       clipPathUnits="userSpaceOnUse">
      <path
         id="path3278"
         d="m 6356.17,6542.56 0,51.89 c 38.29,0.92 72.02,2.56 97.26,2.56 29.59,0 47.54,-2.25 47.54,-10.58 0,-15.42 -61.64,-37.54 -144.8,-43.87"
         inkscape:connector-curvature="0" />
    </clipPath>
    <clipPath
       id="clipPath3264"
       clipPathUnits="userSpaceOnUse">
      <path
         id="path3266"
         d="m 6662.62,5982.98 -306.45,0 0,559.58 c 83.16,6.33 144.8,28.45 144.8,43.87 0,8.33 -17.95,10.58 -47.54,10.58 -25.24,0 -58.97,-1.64 -97.26,-2.56 l 0,36.35 c 34.57,14.65 81.36,33.93 138.37,33.93 54.14,0 106.84,-16.66 161.13,-50.92 158.87,-100.26 86.7,-320.87 38.93,-466.86 -14.77,-45.14 -28.72,-87.78 -30.8,-110.81 -1.46,-16.11 -1.7,-34 -1.18,-53.16 m -239.43,530.24 c 0,0 93.38,-14.84 154.9,-101.85 61.55,-86.99 61.55,-237.65 61.55,-237.65 0,0 116.7,364.97 -76.39,413.78 -57.45,-70.86 -125.27,-74.32 -137.96,-74.32 -1.37,0 -2.1,0.04 -2.1,0.04"
         inkscape:connector-curvature="0" />
    </clipPath>
    <clipPath
       id="clipPath3252"
       clipPathUnits="userSpaceOnUse">
      <path
         id="path3254"
         d="m 7126.21,5982.98 -463.59,0 c -0.52,19.16 -0.28,37.05 1.18,53.16 2.08,23.03 16.03,65.67 30.8,110.81 47.77,145.99 119.94,366.6 -38.93,466.86 -54.29,34.26 -106.99,50.92 -161.13,50.92 -57.01,0 -103.8,-19.28 -138.37,-33.93 l 0,316.08 770.04,0 0,-963.9"
         inkscape:connector-curvature="0" />
    </clipPath>
    <linearGradient
       id="linearGradient3220"
       spreadMethod="pad"
       gradientTransform="matrix(-37.3506,0,0,37.3506,187.675,163.198)"
       gradientUnits="userSpaceOnUse"
       y2="0"
       x2="1"
       y1="0"
       x1="0">
      <stop
         id="stop3222"
         offset="0"
         style="stop-opacity:1;stop-color:#9edede" />
      <stop
         id="stop3224"
         offset="1"
         style="stop-opacity:1;stop-color:#4ebec5" />
    </linearGradient>
    <clipPath
       id="clipPath3216"
       clipPathUnits="userSpaceOnUse">
      <path
         id="path3218"
         d="m 1503.25,1746.53 c 0,10.31 8.36,18.68 18.67,18.68 l 336.16,0 c 10.31,0 18.67,-8.37 18.67,-18.68 l 0,-229.09 c 0,-10.31 -8.36,-18.68 -18.67,-18.68 l -336.16,0 c -10.31,0 -18.67,8.37 -18.67,18.68 l 0,229.09 z"
         inkscape:connector-curvature="0" />
    </clipPath>
    <linearGradient
       id="linearGradient3204"
       spreadMethod="pad"
       gradientTransform="matrix(39.8926,0,0,-39.8926,149.054,163.198)"
       gradientUnits="userSpaceOnUse"
       y2="0"
       x2="1"
       y1="0"
       x1="0">
      <stop
         id="stop3206"
         offset="0"
         style="stop-opacity:1;stop-color:#9edede" />
      <stop
         id="stop3208"
         offset="1"
         style="stop-opacity:1;stop-color:#4ebec5" />
    </linearGradient>
    <clipPath
       id="clipPath3200"
       clipPathUnits="userSpaceOnUse">
      <path
         id="path3202"
         d="m 1889.46,1509.64 c 0,-11.02 -8.93,-19.94 -19.94,-19.94 l -359.04,0 c -11.01,0 -19.94,8.92 -19.94,19.94 l 0,244.68 c 0,11.02 8.93,19.95 19.94,19.95 l 359.04,0 c 11.01,0 19.94,-8.93 19.94,-19.95 l 0,-244.68 z"
         inkscape:connector-curvature="0" />
    </clipPath>
  </defs>
  <sodipodi:namedview
     id="base"
     pagecolor="#ffffff"
     bordercolor="#666666"
     borderopacity="1.0"
     inkscape:pageopacity="0.0"
     inkscape:pageshadow="2"
     inkscape:zoom="0.524"
     inkscape:cx="712.51204"
     inkscape:cy="63.138344"
     inkscape:document-units="px"
     inkscape:current-layer="layer1"
     showgrid="false"
     inkscape:window-width="1366"
     inkscape:window-height="712"
     inkscape:window-x="0"
     inkscape:window-y="27"
     inkscape:window-maximized="1" />
  <metadata
     id="metadata7">
    <rdf:RDF>
      <cc:Work
         rdf:about="">
        <dc:format>image/svg+xml</dc:format>
        <dc:type
           rdf:resource="http://purl.org/dc/dcmitype/StillImage" />
        <dc:title></dc:title>
      </cc:Work>
    </rdf:RDF>
  </metadata>
  <g
     inkscape:label="Layer 1"
     inkscape:groupmode="layer"
     id="layer1"
     transform="translate(0,-802.36218)">
    <g
       id="g4678">
      <rect
         ry="125"
         style="fill:#2c89a0;fill-opacity:1;stroke:none"
         id="rect3855"
         width="250"
         height="250"
         x="-2.4755859e-06"
         y="802.36218" />
      <path
         inkscape:connector-curvature="0"
         d="m 173.0752,912.72905 c 5.9713,-18.24875 14.9925,-45.825 -4.8662,-58.3575 -6.7863,-4.2825 -13.3738,-6.365 -20.1413,-6.365 -7.2962,0 -13.2525,2.52625 -17.6025,4.37 -1.995,0.845 -4.475,1.9 -5.4662,1.9 -0.9888,0 -3.47,-1.055 -5.4638,-1.9 -4.3512,-1.84375 -10.3075,-4.37 -17.6025,-4.37 -6.7662,0 -13.3562,2.0825 -20.1425,6.365 -19.8575,12.5325 -10.8362,40.10875 -4.8675,58.3575 1.8463,5.6425 3.5888,10.9725 3.85,13.85375 0.4613,5.06625 -0.051,11.54875 -0.5937,18.41 -0.8638,10.905 -1.755,22.17875 0.8337,31.6825 4.3863,16.1 18.3688,27.7962 18.9613,28.285 1.3025,1.0763 2.8812,1.665 4.49,1.7475 0.1412,0.01 0.285,0.01 0.4287,0.01 4.235,0 7.67,-3.435 7.67,-7.66875 0,-0.7 -0.094,-1.37375 -0.2675,-2.01875 -0.655,-3.8625 -3.9987,-25.61625 1.0413,-39.49375 3.7587,-10.3525 9.2925,-15.79125 11.6625,-17.235 2.3712,1.44375 7.905,6.8825 11.665,17.235 5.5187,15.19875 0.9837,39.8425 0.9375,40.09 -0.5988,3.17375 0.8537,6.38125 3.6337,8.02505 1.2113,0.7149 2.56,1.0662 3.9025,1.0662 1.745,0 3.48,-0.5937 4.8863,-1.7575 0.5937,-0.4887 14.5775,-12.185 18.9612,-28.285 2.5913,-9.5075 1.7,-20.785 0.835,-31.69125 -0.5425,-6.85875 -1.055,-13.3375 -0.595,-18.40375 0.26,-2.87875 2.0038,-8.20875 3.85,-13.85125"
         style="fill:#ffffff;fill-opacity:1;fill-rule:nonzero;stroke:none"
         id="path3140" />
      <g
         transform="translate(-127.5,527.42856)"
         id="g3870">
        <rect
           style="fill:#aa0000;fill-opacity:1;stroke:none"
           id="rect3866"
           width="45"
           height="10"
           x="230"
           y="362.36218"
           ry="5" />
        <rect
           ry="5"
           y="-257.5"
           x="344.86218"
           height="10"
           width="45"
           id="rect3868"
           style="fill:#aa0000;fill-opacity:1;stroke:none"
           transform="matrix(0,1,-1,0,0,0)" />
      </g>
      <path
         id="rect4673"
         transform="translate(0,802.36218)"
         d="M 125 0 C 55.75 0 0 55.75 0 125 C 0 155.62527 10.909862 183.59091 29.0625 205.28125 C 48.786488 214.69718 70.922135 219.96875 94.3125 219.96875 C 171.82577 219.96875 235.29771 162.13903 244.1875 87.09375 C 228.20527 36.489933 181.0229 0 125 0 z "
         style="fill:#ffffff;fill-opacity:1;stroke:none;opacity:0.3" />
    </g>
  </g>
</svg>
